<?xml version="1.0" encoding="utf-8"?>
<!-- Generator: Adobe Illustrator 22.1.0, SVG Export Plug-In . SVG Version: 6.00 Build 0)  -->
<svg version="1.1" id="Warstwa_1" xmlns="http://www.w3.org/2000/svg" xmlns:xlink="http://www.w3.org/1999/xlink" x="0px" y="0px"
	 viewBox="0 0 50 60" style="enable-background:new 0 0 50 60;" xml:space="preserve">
<g id="ICu7b6.tif">
	<g>
		<path d="M24,2.1c1.1,0.1,2.2,0.2,3.3,0.4C30.2,3,32.9,4,35.3,5.8c2.7,2,4.6,4.7,5.7,7.9c1,3,1,6.1,0.3,9.1
			c-0.8,3.6-2.8,6.6-5.8,8.9c-2.5,1.9-5.4,3.1-8.5,3.5c-0.2,0-0.5,0.1-0.7,0.1c0,0-0.1,0-0.2,0.1c2.3,5.1,4.5,10.2,6.9,15.5
			c0.6-1.2,1-2.2,1.5-3.2c1.6-3.5,3.2-7,4.7-10.5c1.1-2.4,2.1-4.8,3.2-7.2c1.3-2.9,2.6-5.8,3.9-8.7c0.1-0.2,0.2-0.4,0.2-0.6
			c0.5-1.3,0.5-1.3,2.2-1.1c-5,11.1-10,22.1-14.9,33.1c1.7,1.1,2.1,2,1.7,3.4c-0.3,0.9-1.3,1.7-2.3,1.8c-1.1,0-2.2-0.7-2.6-1.7
			c-0.4-1.2,0-2.2,1.6-3.4c-2.3-5.2-4.7-10.4-7-15.6c-0.1,0-0.2,0-0.2-0.1c-2.4,5.2-4.7,10.4-7,15.4c0.6,0.8,1.2,1.4,1.5,2.2
			c0.2,0.4,0.1,1.1-0.1,1.5c-0.4,1.1-1.5,1.7-2.7,1.6c-1.1-0.1-2.1-1-2.3-2.3c-0.1-0.8,0.3-2,1.9-2.8c-5-11-9.9-22.1-14.9-33.1
			c1.5-0.4,1.7-0.2,2.3,1.1c1.3,2.9,2.6,5.8,3.9,8.7c1.1,2.5,2.2,5,3.3,7.4c1.5,3.4,3.1,6.9,4.6,10.3c0.5,1.1,1,2.2,1.4,3.2
			c0.1,0.1,0.2,0.2,0.3,0.5c2.3-5.2,4.6-10.2,6.9-15.4c-3.8,0-7.4,0-11.1,0c0-0.3-0.1-0.6-0.1-0.8c0-10.5,0-21,0-31.5
			c0-0.3,0.1-0.7,0.2-1C16.7,2.1,20.3,2.1,24,2.1z M17.3,19.7c1.4-0.4,1.6-0.3,2.1,0.8c0.6,1.2,1.1,2.5,1.7,3.8
			c1.2,2.8,2.5,5.6,3.7,8.3c0.1,0.1,0.2,0.3,0.3,0.3c0.1,0,0.2-0.2,0.3-0.3c0.7-1.5,1.4-3.1,2.1-4.6c1.1-2.5,2.3-5.1,3.4-7.6
			c0.4-1,0.8-1.1,1.9-0.7c-2.1,4.7-4.2,9.3-6.3,14.1c0.4,0,0.5,0,0.6,0c2.2-0.3,4.2-1,6.1-2.1c2.5-1.5,4.4-3.5,5.6-6.1
			c1.5-3.3,1.9-6.7,1-10.3c-0.7-2.9-2.1-5.4-4.3-7.4c-2.6-2.4-5.8-3.8-9.3-4c-3.7-0.3-7.4-0.1-11.2-0.2c-0.1,0-0.2,0.1-0.3,0.1
			c0,0.2,0,0.3,0,0.5c0,9.7,0,19.4,0,29.2c0,0.5,0.2,0.6,0.7,0.6c2.6,0,5.2,0,7.9,0c0.1,0,0.3,0,0.6-0.1
			C21.5,29.1,19.4,24.4,17.3,19.7z M17,57.1c1,0,1.8-0.9,1.8-1.8c0-1-0.9-1.8-1.8-1.8c-1,0-2,0.9-1.9,1.8
			C15.1,56.3,16.1,57.1,17,57.1z M34.8,55.4c0-1-0.7-1.8-1.7-1.9c-1.1-0.1-1.9,0.7-2,1.7c0,1,0.8,1.9,1.8,2
			C34,57.1,34.8,56.4,34.8,55.4z"/>
	</g>
</g>
</svg>
